PathFileType	4	(X/Y/Z)	Patient4_TMGait_0pt5_01_left_36.trc.trc
DataRate	CameraRate	NumFrames	NumMarkers	Units	OrigDataRate	OrigDataStartFrame	OrigNumFrames
75.268817204301	75.268817204301	4	33	mm	75.268817204301	53	       141
Frame#	Time	L.ASIS			Sacral			L.Shoulder			Chest			R.Shoulder			Neck			R.ASIS			R.Thigh.Superior			R.Thigh.Lateral			R.Thigh.Inferior			R.Patella			L.Thigh.Superior			L.Thigh.Lateral			L.Thigh.Inferior			L.Patella			L.Shank.Superior			L.Shank.Lateral			L.Shank.Inferior			R.Shank.Superior			R.Shank.Lateral			R.Shank.Inferior			R.Heel			R.Midfoot.Superior			R.Midfoot.Lateral			R.Toe			L.Heel			L.Midfoot.Lateral			L.Midfoot.Superior			L.Toe			L.Elbow			L.Wrist			R.Elbow			R.Wrist			
		X1	Y1	Z1	X2	Y2	Z2	X3	Y3	Z3	X4	Y4	Z4	X5	Y5	Z5	X6	Y6	Z6	X7	Y7	Z7	X8	Y8	Z8	X9	Y9	Z9	X10	Y10	Z10	X11	Y11	Z11	X12	Y12	Z12	X13	Y13	Z13	X14	Y14	Z14	X15	Y15	Z15	X16	Y16	Z16	X17	Y17	Z17	X18	Y18	Z18	X19	Y19	Z19	X20	Y20	Z20	X21	Y21	Z21	X22	Y22	Z22	X23	Y23	Z23	X24	Y24	Z24	X25	Y25	Z25	X26	Y26	Z26	X27	Y27	Z27	X28	Y28	Z28	X29	Y29	Z29	X30	Y30	Z30	X31	Y31	Z31	X32	Y32	Z32	X33	Y33	Z33	

53	48.640857142857	813.784503110147	962.999760012481	287.179228939990	598.294147539877	1007.794557008504	444.450582105921	775.803887006507	1433.497798643942	258.210085927490	877.890815213335	1365.101853568427	420.573550451301	793.984985061289	1442.570783159416	593.657368169474	778.690475400921	1497.275278520177	408.226505752046	823.636594990836	944.327611781657	561.134776158182	902.542733198669	769.288327079738	533.455211542375	855.649568207084	647.842993887323	602.971854986162	945.898669066404	606.217146713929	525.644478611599	960.387453846402	492.661228050103	546.146570864715	864.707843707586	754.945388948562	315.092091930069	777.227453092124	639.242867688350	258.458347200154	862.037415784777	563.078394033502	322.185547154231	862.415568604750	493.701156792424	332.651816883907	840.012445257005	421.185108320798	324.517493745767	755.405040514341	301.899988145790	277.433776427885	812.999926310760	195.462271257646	350.793987016989	885.240762904570	418.348936173465	549.655981832582	764.395300418993	374.557167280066	606.662409973436	753.105265147721	266.840694125173	555.069452923025	553.139706902681	198.157541636126	518.999107423160	722.231431936845	151.268117158317	569.299734873843	612.430778388116	149.456959969221	599.749016100674	791.463382326462	46.735047271983	611.391642369548	691.668487764406	37.252054347183	399.261880431163	763.134394017508	34.335904833321	315.474154449993	845.884230943400	97.064491726891	339.067815356287	974.000221072482	48.038622441275	308.013972506326	789.785027285550	1088.668162920168	114.718997771162	957.668071800491	886.020837993364	106.023318771476	749.874384110847	1096.822675528694	709.128907756545	860.942158320444	861.909075167890	690.222707075820	
54	48.654142857143	814.105425008372	963.547519648356	286.446212042343	597.510990824780	1008.511710386612	442.655651763571	777.362054414656	1434.347059339229	257.598787419041	877.905877345974	1365.568934959439	420.725330370456	792.684518963194	1442.800666420071	593.215038531994	779.009940827922	1497.876943445030	407.816903393717	822.370597633641	945.537829785926	560.777097006022	903.148127188683	772.554676672425	532.276290472327	858.726876000022	650.648370462318	602.215205784262	948.803864960109	610.200091353988	524.131594153255	965.884736640117	497.453313515628	544.976585711880	862.603511569001	754.247924254926	315.148615164781	774.248524264760	639.324268657482	258.038768903068	857.917469710455	562.386465008804	322.264115324920	857.502305952348	493.127561715844	332.848348401101	834.936752712464	420.875096160791	324.601199707435	749.971789761762	301.926853063781	277.307503935643	806.849253282184	195.284485428449	350.885258035935	893.079465092051	421.312376669834	548.979744560462	774.181469984050	373.225972712330	606.369359526197	766.594224232439	265.102658888432	554.990135866288	569.249057121418	188.912052817205	519.742971416661	740.076218729159	148.463173841420	569.267096130911	630.659866451235	142.480207383706	600.215070096610	813.353681916315	46.773296176491	610.968699105489	684.921041948693	37.265064790387	399.250877575139	756.430514025658	34.342552270433	315.469368343293	839.219069580908	96.999776924810	339.121623461826	967.320435654090	47.914392516131	308.023441896945	795.648327091631	1090.818351900889	112.156301017691	970.672255109761	894.277941351963	103.480587903636	741.698816087403	1097.987367320055	708.350230898260	835.731871866620	854.623735827376	697.722872837297	
55	48.667428571429	814.611468402419	964.047749666218	285.811347255399	596.828196438832	1009.130319109237	440.987269910564	778.997661301982	1435.107920277446	257.107858036981	877.972789500360	1365.952410099673	420.999233934716	791.427582872498	1442.965510511861	592.878357249111	779.336002720914	1498.397699572011	407.522407451984	821.170327452274	946.626700837391	560.528003543689	903.474772098401	775.428116532435	531.313484286284	861.268766064768	653.186761644926	601.685544358953	951.021752117225	613.720964697104	522.841248646400	970.555118179793	502.029426999758	544.097229635672	860.551704844901	753.526187322522	315.344171869227	771.376915975585	639.367129807144	257.665342537229	853.895012120929	561.674465766258	322.369749935338	852.694486136012	492.531471354187	333.046199446835	829.951290980048	420.537094652269	324.700193412432	744.607368068136	301.939419403680	277.171605089307	800.737984197211	195.082547132103	350.971441192350	900.447141638359	424.003752372492	548.582365916929	783.865473170175	371.176404885702	606.361267770905	780.521978077405	262.741673367634	555.180248499645	586.433135289174	178.262327398580	520.722521807828	758.986077637942	145.199653853786	569.639505812996	650.069963967934	134.451274755871	600.946912095814	836.600494466942	46.715185948266	610.819053748949	678.186469769716	37.280691760479	399.245693854192	749.737668424594	34.347956149523	315.469580467061	832.576558027868	96.920889554451	339.184502777798	960.666136131174	47.737961094789	308.041944645265	801.077261120817	1092.917964208475	109.788439328416	983.213983503140	902.898000205164	101.209587989411	733.605659512973	1099.347467798598	707.783251967379	810.805721293157	849.406936407327	704.957672465605	
56	48.680714285714	815.271664455786	964.486194143950	285.280579248953	596.246553845371	1009.639807380591	439.452360218400	780.681824573013	1435.753840363337	256.741125820198	878.089325088932	1366.239166270330	421.389913131284	790.231959145462	1443.062555722167	592.654077363210	779.681964013480	1498.823928313601	407.339010131979	820.023400589960	947.547848124499	560.361995378937	903.519109504704	777.851523207096	530.588983180783	863.221669762510	655.392770706526	601.406189785412	952.555925353121	616.711015937590	521.848674746607	974.371811606030	506.318444630475	543.560526357346	858.581267644863	752.779943858213	315.618802871821	768.598276598742	639.372568722264	257.326746747867	849.963108147839	560.939261799559	322.465778921385	847.984006365358	491.916353417390	333.220651463566	825.047163118299	420.170219288380	324.794832358816	739.304679427536	301.935733663983	277.020943421994	794.664764576519	194.857217475412	351.044580328270	907.302417342028	426.408334150376	548.486344268103	793.421382322991	368.500631886333	606.637015558977	794.809891660044	259.918876800629	555.627260216085	604.692318688995	166.561396711540	521.860559336014	778.808435685390	141.711736838386	570.396406422918	670.566047971119	125.695194332832	601.890374512372	860.916910045299	46.773206211475	610.943317875768	671.469876045695	37.297235139875	399.243479346079	743.055966139580	34.350646736335	315.473476259281	825.955968316415	96.830206816438	339.252384525212	954.036521571837	47.514919955499	308.066584292351	806.109145120549	1094.923479957774	107.606568734515	995.254138791421	911.813114617085	99.202364921268	725.511652940485	1100.908968879048	707.434047378643	786.483081420305	846.174176506363	711.801785618896	
